<svg 
    xmlns="http://www.w3.org/2000/svg" 
    xmlns:xlink="http://www.w3.org/1999/xlink" 
    width="50" 
    zoomAndPan="magnify" 
    viewBox="0 0 37.5 37.499999" 
    height="50" 
    preserveAspectRatio="xMidYMid meet" 
    version="1.0">

    <defs><clipPath id="9840cac2dd">
        <path 
        d="M 1.109375 7.152344 L 35.894531 7.152344 L 35.894531 30 L 1.109375 30 Z M 1.109375 7.152344 " 
        clip-rule="nonzero"/></clipPath>
    </defs>
    <g clip-path="url(#9840cac2dd)">
        <path 
            fill="#fff" 
            d="M 31.21875 7.152344 L 5.789062 7.152344 C 3.222656 7.152344 1.128906 9.242188 1.128906 11.8125 L 1.128906 25.183594 C 1.128906 27.753906 3.21875 29.84375 5.789062 29.84375 L 31.21875 29.84375 C 33.785156 29.84375 35.878906 27.753906 35.878906 25.183594 L 35.878906 11.8125 C 35.878906 9.246094 33.789062 7.152344 31.21875 7.152344 Z M 34.527344 25.183594 C 34.527344 27.007812 33.042969 28.496094 31.21875 28.496094 L 5.789062 28.496094 C 3.964844 28.496094 2.476562 27.007812 2.476562 25.183594 L 2.476562 11.8125 C 2.476562 9.988281 3.964844 8.503906 5.789062 8.503906 L 31.21875 8.503906 C 33.042969 8.503906 34.527344 9.988281 34.527344 11.8125 Z M 34.527344 25.183594 " 
            fill-opacity="1" 
            fill-rule="nonzero"/>
            </g>
        <path fill="#fff" d="M 12.625 18.808594 C 12.113281 19.074219 11.527344 19.226562 10.910156 19.226562 C 10.292969 19.226562 9.710938 19.074219 9.199219 18.808594 C 7.328125 19.5 5.996094 21.300781 5.996094 23.414062 L 5.996094 24.144531 C 5.996094 24.714844 6.460938 25.179688 7.03125 25.179688 L 14.789062 25.179688 C 15.359375 25.179688 15.824219 24.714844 15.824219 24.144531 L 15.824219 23.414062 C 15.824219 21.300781 14.492188 19.5 12.625 18.808594 Z M 12.625 18.808594 " fill-opacity="1" fill-rule="nonzero"/><path fill="#fff" d="M 13.90625 15.503906 C 13.90625 15.902344 13.828125 16.285156 13.675781 16.652344 C 13.523438 17.019531 13.308594 17.339844 13.027344 17.621094 C 12.746094 17.902344 12.421875 18.121094 12.058594 18.269531 C 11.691406 18.421875 11.308594 18.5 10.910156 18.5 C 10.515625 18.5 10.132812 18.421875 9.765625 18.269531 C 9.398438 18.121094 9.074219 17.902344 8.792969 17.621094 C 8.511719 17.339844 8.296875 17.019531 8.144531 16.652344 C 7.992188 16.285156 7.917969 15.902344 7.917969 15.503906 C 7.917969 15.109375 7.992188 14.726562 8.144531 14.359375 C 8.296875 13.992188 8.511719 13.667969 8.792969 13.386719 C 9.074219 13.105469 9.398438 12.890625 9.765625 12.738281 C 10.132812 12.585938 10.515625 12.511719 10.910156 12.511719 C 11.308594 12.511719 11.691406 12.585938 12.058594 12.738281 C 12.421875 12.890625 12.746094 13.105469 13.027344 13.386719 C 13.308594 13.667969 13.523438 13.992188 13.675781 14.359375 C 13.828125 14.726562 13.90625 15.109375 13.90625 15.503906 Z M 13.90625 15.503906 " fill-opacity="1" fill-rule="nonzero"/><path fill="#fff" d="M 30.425781 14.054688 L 19.984375 14.054688 C 19.621094 14.054688 19.328125 14.351562 19.328125 14.710938 C 19.328125 15.074219 19.621094 15.367188 19.984375 15.367188 L 30.425781 15.367188 C 30.789062 15.367188 31.082031 15.074219 31.082031 14.710938 C 31.082031 14.351562 30.789062 14.054688 30.425781 14.054688 Z M 30.425781 14.054688 " fill-opacity="1" fill-rule="nonzero"/><path fill="#fff" d="M 30.425781 17.730469 L 19.984375 17.730469 C 19.621094 17.730469 19.328125 18.023438 19.328125 18.386719 C 19.328125 18.746094 19.621094 19.042969 19.984375 19.042969 L 30.425781 19.042969 C 30.789062 19.042969 31.082031 18.746094 31.082031 18.386719 C 31.082031 18.023438 30.789062 17.730469 30.425781 17.730469 Z M 30.425781 17.730469 " fill-opacity="1" fill-rule="nonzero"/><path fill="#fff" d="M 30.425781 21.402344 L 19.984375 21.402344 C 19.621094 21.402344 19.328125 21.699219 19.328125 22.058594 C 19.328125 22.421875 19.621094 22.714844 19.984375 22.714844 L 30.425781 22.714844 C 30.789062 22.714844 31.082031 22.421875 31.082031 22.058594 C 31.082031 21.699219 30.789062 21.402344 30.425781 21.402344 Z M 30.425781 21.402344 " 
            fill-opacity="1" 
            fill-rule="nonzero"/>
</svg>