<svg xmlns="http://www.w3.org/2000/svg" xmlns:xlink="http://www.w3.org/1999/xlink" width="50" zoomAndPan="magnify" viewBox="0 0 37.5 37.499999" height="50" preserveAspectRatio="xMidYMid meet" version="1.0"><defs><clipPath id="46281bc0ad"><path d="M 0.59375 0.59375 L 36.117188 0.59375 L 36.117188 36.117188 L 0.59375 36.117188 Z M 0.59375 0.59375 " clip-rule="nonzero"/></clipPath></defs><g clip-path="url(#46281bc0ad)"><path fill="#fff" d="M 18.5 25.886719 C 14.421875 25.886719 11.113281 22.578125 11.113281 18.5 C 11.113281 14.421875 14.421875 11.113281 18.5 11.113281 C 22.578125 11.113281 25.886719 14.421875 25.886719 18.5 C 25.886719 22.578125 22.578125 25.886719 18.5 25.886719 Z M 35.441406 15.046875 L 32.132812 14.65625 C 31.835938 13.59375 31.410156 12.558594 30.859375 11.578125 L 32.921875 8.960938 C 33.265625 8.527344 33.226562 7.902344 32.835938 7.511719 L 29.488281 4.164062 C 29.097656 3.773438 28.472656 3.734375 28.035156 4.078125 L 25.421875 6.140625 C 24.441406 5.589844 23.40625 5.164062 22.34375 4.867188 L 21.953125 1.558594 C 21.886719 1.007812 21.421875 0.59375 20.863281 0.59375 L 16.132812 0.59375 C 15.578125 0.59375 15.113281 1.007812 15.046875 1.558594 L 14.65625 4.867188 C 13.59375 5.164062 12.558594 5.589844 11.578125 6.140625 L 8.960938 4.078125 C 8.527344 3.734375 7.902344 3.773438 7.507812 4.164062 L 4.164062 7.511719 C 3.773438 7.902344 3.734375 8.527344 4.078125 8.960938 L 6.140625 11.578125 C 5.589844 12.558594 5.164062 13.59375 4.867188 14.65625 L 1.558594 15.046875 C 1.007812 15.113281 0.59375 15.578125 0.59375 16.132812 L 0.59375 20.863281 C 0.59375 21.421875 1.007812 21.886719 1.558594 21.953125 L 4.867188 22.34375 C 5.164062 23.40625 5.589844 24.441406 6.140625 25.421875 L 4.078125 28.035156 C 3.734375 28.472656 3.773438 29.097656 4.164062 29.488281 L 7.507812 32.835938 C 7.902344 33.226562 8.527344 33.265625 8.960938 32.921875 L 11.578125 30.859375 C 12.558594 31.410156 13.59375 31.835938 14.65625 32.132812 L 15.046875 35.441406 C 15.113281 35.992188 15.578125 36.40625 16.132812 36.40625 L 20.785156 36.40625 C 21.332031 36.40625 21.792969 36.007812 21.871094 35.464844 L 22.34375 32.132812 C 23.40625 31.835938 24.441406 31.410156 25.421875 30.859375 L 28.035156 32.921875 C 28.472656 33.265625 29.097656 33.226562 29.488281 32.835938 L 32.835938 29.488281 C 33.226562 29.097656 33.265625 28.472656 32.921875 28.035156 L 30.859375 25.421875 C 31.410156 24.441406 31.835938 23.40625 32.132812 22.34375 L 35.441406 21.953125 C 35.992188 21.886719 36.40625 21.421875 36.40625 20.863281 L 36.40625 16.132812 C 36.40625 15.578125 35.992188 15.113281 35.441406 15.046875 " fill-opacity="1" fill-rule="nonzero"/></g></svg>