<svg xmlns="http://www.w3.org/2000/svg" xmlns:xlink="http://www.w3.org/1999/xlink" width="50" zoomAndPan="magnify" viewBox="0 0 37.5 37.499999" height="50" preserveAspectRatio="xMidYMid meet" version="1.0"><defs><clipPath id="1d9d3fe12f"><path d="M 0.898438 3.699219 L 36.421875 3.699219 L 36.421875 28 L 0.898438 28 Z M 0.898438 3.699219 " clip-rule="nonzero"/></clipPath><clipPath id="8a8527fb54"><path d="M 20 21 L 28 21 L 28 34.785156 L 20 34.785156 Z M 20 21 " clip-rule="nonzero"/></clipPath><clipPath id="4f8a58dac1"><path d="M 29 17 L 36.421875 17 L 36.421875 34.785156 L 29 34.785156 Z M 29 17 " clip-rule="nonzero"/></clipPath><clipPath id="4d9a0a206d"><path d="M 11 25 L 19 25 L 19 34.785156 L 11 34.785156 Z M 11 25 " clip-rule="nonzero"/></clipPath><clipPath id="ff1212cb4f"><path d="M 2 28 L 9 28 L 9 34.785156 L 2 34.785156 Z M 2 28 " clip-rule="nonzero"/></clipPath></defs><g clip-path="url(#1d9d3fe12f)"><path fill="#040606" d="M 27.222656 12.769531 L 22.59375 12.769531 L 17.8125 19.242188 L 12.472656 19.242188 L 8.085938 25.71875 L 0.898438 25.71875 L 0.898438 27.015625 L 8.792969 27.015625 L 13.175781 20.539062 L 18.480469 20.539062 L 23.265625 14.0625 L 27.871094 14.0625 L 34.183594 5.988281 L 36.15625 7.484375 L 35.136719 3.703125 L 31.160156 3.703125 L 33.140625 5.199219 L 27.222656 12.769531 " fill-opacity="1" fill-rule="nonzero"/></g><g clip-path="url(#8a8527fb54)"><path fill="#040606" d="M 21.949219 23.128906 L 25.898438 23.128906 L 25.898438 33.488281 L 21.949219 33.488281 Z M 20.632812 21.832031 L 20.632812 34.785156 L 27.214844 34.785156 L 27.214844 21.832031 L 20.632812 21.832031 " fill-opacity="1" fill-rule="nonzero"/></g><g clip-path="url(#4f8a58dac1)"><path fill="#040606" d="M 31.160156 19.242188 L 35.109375 19.242188 L 35.109375 33.488281 L 31.160156 33.488281 Z M 29.84375 17.949219 L 29.84375 34.785156 L 36.421875 34.785156 L 36.421875 17.949219 L 29.84375 17.949219 " fill-opacity="1" fill-rule="nonzero"/></g><g clip-path="url(#4d9a0a206d)"><path fill="#040606" d="M 12.738281 27.015625 L 16.6875 27.015625 L 16.6875 33.488281 L 12.738281 33.488281 Z M 11.421875 25.71875 L 11.421875 34.785156 L 18.003906 34.785156 L 18.003906 25.71875 L 11.421875 25.71875 " fill-opacity="1" fill-rule="nonzero"/></g><g clip-path="url(#ff1212cb4f)"><path fill="#040606" d="M 3.527344 29.605469 L 7.476562 29.605469 L 7.476562 33.488281 L 3.527344 33.488281 Z M 2.214844 28.308594 L 2.214844 34.785156 L 8.792969 34.785156 L 8.792969 28.308594 L 2.214844 28.308594 " fill-opacity="1" fill-rule="nonzero"/></g></svg>