<svg xmlns="http://www.w3.org/2000/svg" xmlns:xlink="http://www.w3.org/1999/xlink" width="50" zoomAndPan="magnify" viewBox="0 0 37.5 37.499999" height="50" preserveAspectRatio="xMidYMid meet" version="1.0"><defs><clipPath id="6056ebe1b7"><path d="M 1.703125 1.003906 L 35.75 1.003906 L 35.75 36.53125 L 1.703125 36.53125 Z M 1.703125 1.003906 " clip-rule="nonzero"/></clipPath></defs><g clip-path="url(#6056ebe1b7)"><path fill="#fff" d="M 1.765625 25.613281 C 1.765625 23.953125 1.765625 22.292969 1.765625 20.632812 C 1.765625 20.507812 1.757812 20.382812 1.746094 20.257812 C 1.714844 19.964844 1.824219 19.753906 2.097656 19.625 C 4.707031 18.386719 7.316406 17.148438 9.921875 15.910156 C 10.15625 15.800781 10.25 15.679688 10.25 15.402344 C 10.234375 12.070312 10.242188 8.742188 10.234375 5.410156 C 10.234375 5.125 10.335938 4.933594 10.589844 4.808594 C 13.101562 3.605469 15.613281 2.40625 18.117188 1.1875 C 18.46875 1.015625 18.757812 1.003906 19.113281 1.167969 C 21.820312 2.386719 24.53125 3.589844 27.242188 4.792969 C 27.527344 4.921875 27.628906 5.125 27.625 5.441406 C 27.617188 8.75 27.625 12.058594 27.613281 15.367188 C 27.609375 15.660156 27.699219 15.804688 27.960938 15.9375 C 30.363281 17.160156 32.757812 18.394531 35.144531 19.644531 C 35.308594 19.730469 35.476562 19.992188 35.484375 20.175781 C 35.507812 21.019531 35.46875 21.867188 35.46875 22.714844 C 35.464844 25.367188 35.460938 28.023438 35.472656 30.679688 C 35.476562 31.046875 35.335938 31.261719 35.027344 31.449219 C 32.472656 32.988281 29.929688 34.542969 27.371094 36.074219 C 27.207031 36.171875 26.886719 36.160156 26.714844 36.066406 C 24.085938 34.589844 21.46875 33.089844 18.839844 31.609375 C 18.730469 31.546875 18.523438 31.554688 18.414062 31.621094 C 15.964844 33.089844 13.523438 34.570312 11.085938 36.058594 C 10.84375 36.207031 10.625 36.230469 10.382812 36.09375 C 7.652344 34.539062 4.921875 32.984375 2.191406 31.433594 C 1.882812 31.257812 1.757812 31.046875 1.761719 30.695312 C 1.773438 29 1.765625 27.308594 1.765625 25.613281 Z M 26.589844 6.152344 C 26.5 6.1875 26.457031 6.203125 26.417969 6.222656 C 24.070312 7.316406 21.71875 8.410156 19.371094 9.503906 C 19.167969 9.597656 19.152344 9.722656 19.152344 9.90625 C 19.15625 12.894531 19.15625 15.882812 19.15625 18.871094 L 19.15625 19.261719 C 19.257812 19.21875 19.3125 19.203125 19.363281 19.179688 C 21.699219 18.066406 24.035156 16.953125 26.371094 15.84375 C 26.574219 15.75 26.589844 15.621094 26.589844 15.4375 C 26.585938 13.6875 26.585938 11.9375 26.589844 10.183594 C 26.589844 8.855469 26.589844 7.527344 26.589844 6.152344 Z M 23.355469 23.363281 C 23.355469 24.078125 23.359375 24.71875 23.355469 25.359375 C 23.355469 25.804688 23.15625 26.066406 22.828125 26.0625 C 22.5 26.054688 22.324219 25.820312 22.324219 25.382812 C 22.324219 24.617188 22.316406 23.847656 22.328125 23.082031 C 22.332031 22.851562 22.257812 22.734375 22.058594 22.628906 C 21.5625 22.371094 21.078125 22.089844 20.585938 21.820312 C 20.132812 21.566406 19.675781 21.3125 19.1875 21.042969 C 19.179688 21.132812 19.171875 21.175781 19.171875 21.21875 C 19.167969 24.273438 19.167969 27.332031 19.179688 30.386719 C 19.179688 30.503906 19.308594 30.667969 19.421875 30.734375 C 21.402344 31.871094 23.386719 33 25.378906 34.121094 C 25.742188 34.328125 26.109375 34.53125 26.523438 34.765625 L 26.523438 34.351562 C 26.523438 31.535156 26.5 28.71875 26.539062 25.902344 C 26.546875 25.304688 26.386719 24.980469 25.84375 24.722656 C 25.011719 24.328125 24.222656 23.84375 23.355469 23.363281 Z M 2.832031 21.042969 C 2.820312 21.148438 2.808594 21.214844 2.808594 21.277344 C 2.808594 24.300781 2.808594 27.320312 2.800781 30.34375 C 2.800781 30.558594 2.902344 30.644531 3.058594 30.730469 C 5.347656 32.023438 7.632812 33.320312 9.917969 34.617188 C 9.992188 34.65625 10.074219 34.691406 10.160156 34.730469 C 10.167969 34.667969 10.175781 34.632812 10.175781 34.601562 C 10.179688 31.519531 10.183594 28.441406 10.167969 25.363281 C 10.167969 25.234375 10.035156 25.054688 9.917969 24.984375 C 9.148438 24.535156 8.363281 24.109375 7.585938 23.675781 C 7.410156 23.578125 7.234375 23.488281 7.007812 23.367188 C 7.007812 24.101562 7.011719 24.773438 7.007812 25.445312 C 7.007812 25.820312 6.8125 26.050781 6.507812 26.058594 C 6.191406 26.070312 5.980469 25.828125 5.980469 25.4375 C 5.976562 24.660156 5.96875 23.878906 5.984375 23.101562 C 5.988281 22.867188 5.921875 22.734375 5.707031 22.621094 C 4.890625 22.1875 4.085938 21.726562 3.277344 21.277344 C 3.140625 21.203125 3 21.132812 2.832031 21.042969 Z M 11.234375 34.71875 C 11.359375 34.652344 11.449219 34.613281 11.53125 34.5625 C 13.632812 33.289062 15.738281 32.019531 17.839844 30.75 C 18.027344 30.636719 18.074219 30.515625 18.074219 30.308594 C 18.066406 27.355469 18.066406 24.402344 18.070312 21.445312 L 18.070312 21.070312 C 17.917969 21.152344 17.8125 21.207031 17.707031 21.269531 C 15.640625 22.496094 13.578125 23.722656 11.511719 24.9375 C 11.28125 25.074219 11.210938 25.222656 11.210938 25.480469 C 11.21875 28.433594 11.214844 31.390625 11.214844 34.34375 C 11.214844 34.453125 11.226562 34.5625 11.234375 34.71875 Z M 34.429688 21.0625 C 34.324219 21.113281 34.285156 21.128906 34.246094 21.152344 C 32.082031 22.433594 29.921875 23.714844 27.757812 24.996094 C 27.574219 25.101562 27.554688 25.234375 27.554688 25.414062 C 27.554688 28.414062 27.558594 31.414062 27.554688 34.414062 C 27.554688 34.5 27.5625 34.585938 27.570312 34.714844 C 27.6875 34.65625 27.78125 34.617188 27.863281 34.566406 C 29.976562 33.289062 32.085938 32.011719 34.199219 30.738281 C 34.382812 30.628906 34.4375 30.503906 34.4375 30.296875 C 34.429688 28.144531 34.429688 25.996094 34.429688 23.84375 Z M 18.085938 19.230469 C 18.105469 19.152344 18.113281 19.132812 18.113281 19.109375 C 18.113281 16.019531 18.117188 12.929688 18.105469 9.835938 C 18.105469 9.71875 17.976562 9.546875 17.863281 9.488281 C 17.066406 9.066406 16.257812 8.667969 15.449219 8.261719 C 15.386719 8.230469 15.3125 8.210938 15.210938 8.175781 C 15.210938 8.335938 15.214844 8.460938 15.210938 8.585938 C 15.207031 9.078125 15.214844 9.570312 15.195312 10.0625 C 15.183594 10.339844 14.996094 10.492188 14.71875 10.503906 C 14.441406 10.515625 14.261719 10.378906 14.195312 10.109375 C 14.171875 10.011719 14.171875 9.90625 14.171875 9.800781 C 14.167969 9.171875 14.164062 8.542969 14.171875 7.914062 C 14.175781 7.707031 14.121094 7.582031 13.921875 7.484375 C 13.132812 7.101562 12.351562 6.695312 11.566406 6.300781 C 11.484375 6.257812 11.390625 6.234375 11.296875 6.199219 C 11.285156 6.261719 11.277344 6.285156 11.277344 6.308594 C 11.277344 9.363281 11.273438 12.417969 11.269531 15.476562 C 11.269531 15.703125 11.378906 15.792969 11.554688 15.882812 C 13.632812 16.953125 15.714844 18.023438 17.792969 19.101562 C 17.878906 19.144531 17.96875 19.179688 18.085938 19.230469 Z M 23.917969 22.484375 C 24.910156 23.035156 25.847656 23.554688 26.777344 24.085938 C 26.972656 24.199219 27.117188 24.179688 27.304688 24.070312 C 29.382812 22.828125 31.464844 21.59375 33.550781 20.363281 C 33.648438 20.304688 33.742188 20.234375 33.867188 20.152344 C 32.972656 19.6875 32.132812 19.257812 31.296875 18.8125 C 31.097656 18.703125 30.9375 18.699219 30.734375 18.8125 C 29.5 19.484375 28.261719 20.140625 27.023438 20.808594 C 26.011719 21.351562 24.996094 21.902344 23.917969 22.484375 Z M 17.53125 20.167969 C 16.582031 19.675781 15.699219 19.210938 14.808594 18.761719 C 14.714844 18.714844 14.546875 18.746094 14.441406 18.800781 C 13.210938 19.453125 11.984375 20.113281 10.757812 20.769531 C 9.714844 21.332031 8.671875 21.894531 7.597656 22.472656 C 7.699219 22.539062 7.769531 22.59375 7.84375 22.636719 C 8.695312 23.105469 9.546875 23.570312 10.386719 24.054688 C 10.609375 24.183594 10.769531 24.1875 11 24.050781 C 12.257812 23.285156 13.53125 22.542969 14.796875 21.792969 C 15.6875 21.265625 16.578125 20.734375 17.53125 20.167969 Z M 3.445312 20.148438 C 3.5 20.195312 3.53125 20.226562 3.570312 20.25 C 4.488281 20.761719 5.402344 21.28125 6.328125 21.777344 C 6.429688 21.832031 6.613281 21.8125 6.722656 21.753906 C 8.917969 20.585938 11.113281 19.40625 13.304688 18.222656 C 13.363281 18.191406 13.417969 18.140625 13.492188 18.082031 C 12.609375 17.625 11.765625 17.179688 10.910156 16.757812 C 10.800781 16.703125 10.621094 16.726562 10.507812 16.777344 C 9.441406 17.273438 8.382812 17.785156 7.320312 18.292969 C 6.035156 18.90625 4.753906 19.523438 3.445312 20.148438 Z M 29.886719 18.09375 C 28.980469 17.625 28.132812 17.179688 27.277344 16.753906 C 27.171875 16.703125 26.988281 16.726562 26.875 16.78125 C 24.976562 17.679688 23.082031 18.582031 21.1875 19.492188 C 20.734375 19.707031 20.285156 19.929688 19.777344 20.175781 C 20.753906 20.722656 21.671875 21.226562 22.582031 21.75 C 22.773438 21.859375 22.921875 21.847656 23.109375 21.746094 C 24.421875 21.03125 25.742188 20.324219 27.058594 19.617188 C 27.984375 19.121094 28.90625 18.621094 29.886719 18.09375 Z M 25.859375 5.328125 C 24.777344 4.847656 23.78125 4.394531 22.773438 3.964844 C 22.65625 3.914062 22.464844 3.945312 22.339844 4.007812 C 20.277344 5.042969 18.222656 6.082031 16.167969 7.132812 C 16.078125 7.179688 15.992188 7.234375 15.867188 7.308594 C 16.746094 7.75 17.578125 8.179688 18.417969 8.582031 C 18.546875 8.644531 18.75 8.640625 18.878906 8.582031 C 20.464844 7.851562 22.042969 7.109375 23.625 6.371094 C 24.34375 6.035156 25.066406 5.699219 25.859375 5.328125 Z M 21.375 3.324219 C 20.507812 2.9375 19.703125 2.585938 18.910156 2.214844 C 18.714844 2.128906 18.566406 2.121094 18.371094 2.21875 C 16.882812 2.949219 15.390625 3.660156 13.902344 4.378906 C 13.269531 4.683594 12.640625 4.992188 11.917969 5.34375 C 12.019531 5.382812 12.054688 5.390625 12.085938 5.40625 C 12.898438 5.816406 13.710938 6.234375 14.535156 6.628906 C 14.636719 6.679688 14.820312 6.648438 14.933594 6.589844 C 16.128906 5.996094 17.316406 5.390625 18.507812 4.785156 C 19.441406 4.3125 20.375 3.832031 21.375 3.324219 Z M 21.375 3.324219 " fill-opacity="1" fill-rule="nonzero"/></g></svg>