<svg xmlns="http://www.w3.org/2000/svg" xmlns:xlink="http://www.w3.org/1999/xlink" width="50" zoomAndPan="magnify" viewBox="0 0 37.5 37.499999" height="50" preserveAspectRatio="xMidYMid meet" version="1.0"><defs><clipPath id="f88aa549a5"><path d="M 18 8 L 36.207031 8 L 36.207031 28 L 18 28 Z M 18 8 " clip-rule="nonzero"/></clipPath><clipPath id="4e8b5afe73"><path d="M 0.683594 13 L 23 13 L 23 35.167969 L 0.683594 35.167969 Z M 0.683594 13 " clip-rule="nonzero"/></clipPath></defs><g clip-path="url(#f88aa549a5)"><path fill="#fff" d="M 36.203125 17.976562 C 36.199219 22.613281 32.949219 26.503906 28.523438 27.269531 C 26.894531 27.554688 25.300781 27.410156 23.746094 26.851562 C 23.570312 26.789062 23.519531 26.730469 23.550781 26.527344 C 24.132812 22.753906 23.230469 19.382812 20.808594 16.429688 C 20.171875 15.652344 19.4375 14.976562 18.621094 14.394531 C 18.480469 14.292969 18.449219 14.214844 18.53125 14.054688 C 20.035156 11.101562 22.402344 9.3125 25.683594 8.839844 C 30.578125 8.140625 35.132812 11.476562 36.046875 16.378906 C 36.152344 16.941406 36.191406 17.507812 36.203125 17.976562 Z M 24.6875 19.476562 C 24.492188 19.476562 24.300781 19.476562 24.109375 19.476562 C 24.09375 19.476562 24.082031 19.476562 24.066406 19.476562 C 23.769531 19.492188 23.59375 19.710938 23.644531 20 C 23.71875 20.4375 23.890625 20.835938 24.171875 21.183594 C 24.71875 21.859375 25.449219 22.167969 26.292969 22.238281 C 26.472656 22.253906 26.511719 22.308594 26.503906 22.472656 C 26.488281 22.664062 26.503906 22.859375 26.496094 23.050781 C 26.492188 23.179688 26.515625 23.238281 26.664062 23.234375 C 26.972656 23.222656 27.285156 23.226562 27.59375 23.230469 C 27.710938 23.234375 27.75 23.199219 27.746094 23.082031 C 27.738281 22.867188 27.753906 22.652344 27.742188 22.4375 C 27.734375 22.292969 27.78125 22.25 27.925781 22.242188 C 28.441406 22.199219 28.945312 22.09375 29.417969 21.859375 C 30.277344 21.441406 30.703125 20.738281 30.753906 19.792969 C 30.804688 18.804688 30.425781 18.046875 29.542969 17.570312 C 29.050781 17.304688 28.527344 17.128906 27.988281 16.996094 C 27.394531 16.847656 26.789062 16.742188 26.222656 16.496094 C 25.917969 16.363281 25.769531 16.109375 25.796875 15.8125 C 25.824219 15.496094 25.996094 15.292969 26.324219 15.210938 C 26.867188 15.070312 27.410156 15.085938 27.949219 15.21875 C 28.234375 15.289062 28.421875 15.46875 28.519531 15.753906 C 28.621094 16.054688 28.738281 16.132812 29.0625 16.136719 C 29.394531 16.136719 29.726562 16.136719 30.058594 16.136719 C 30.496094 16.128906 30.683594 15.878906 30.539062 15.460938 C 30.164062 14.355469 29.339844 13.816406 28.234375 13.652344 C 27.886719 13.601562 27.882812 13.613281 27.882812 13.269531 C 27.882812 13.203125 27.878906 13.136719 27.882812 13.070312 C 27.894531 12.964844 27.847656 12.925781 27.746094 12.929688 C 27.546875 12.933594 27.347656 12.929688 27.144531 12.929688 C 26.644531 12.929688 26.640625 12.929688 26.640625 13.433594 C 26.640625 13.574219 26.601562 13.625 26.460938 13.632812 C 26.019531 13.660156 25.601562 13.769531 25.199219 13.957031 C 24.101562 14.472656 23.554688 15.460938 23.746094 16.628906 C 23.886719 17.480469 24.464844 17.957031 25.210938 18.277344 C 25.753906 18.507812 26.332031 18.636719 26.90625 18.777344 C 27.394531 18.894531 27.894531 18.980469 28.324219 19.257812 C 28.585938 19.429688 28.699219 19.675781 28.660156 19.980469 C 28.617188 20.28125 28.441406 20.472656 28.148438 20.5625 C 27.695312 20.699219 27.234375 20.714844 26.765625 20.671875 C 26.210938 20.625 25.847656 20.351562 25.710938 19.792969 C 25.65625 19.578125 25.503906 19.476562 25.285156 19.476562 C 25.085938 19.476562 24.886719 19.476562 24.6875 19.476562 Z M 24.6875 19.476562 " fill-opacity="1" fill-rule="nonzero"/></g><g clip-path="url(#4e8b5afe73)"><path fill="#fff" d="M 11.398438 13.707031 C 17.292969 13.707031 22.066406 18.511719 22.066406 24.4375 C 22.066406 30.382812 17.285156 35.175781 11.34375 35.15625 C 5.410156 35.132812 0.6875 30.257812 0.722656 24.328125 C 0.753906 18.503906 5.550781 13.703125 11.398438 13.707031 Z M 20.40625 24.421875 C 20.402344 19.433594 16.367188 15.386719 11.398438 15.386719 C 6.398438 15.386719 2.390625 19.4375 2.394531 24.488281 C 2.398438 29.441406 6.453125 33.488281 11.398438 33.480469 C 16.382812 33.476562 20.414062 29.421875 20.40625 24.421875 Z M 20.40625 24.421875 " fill-opacity="1" fill-rule="nonzero"/></g><path fill="#fff" d="M 20.484375 9.3125 C 20.242188 8.371094 19.863281 7.519531 19.273438 6.78125 C 17.453125 4.5 15.074219 3.5625 12.238281 4.203125 C 9.414062 4.839844 7.664062 6.695312 6.980469 9.53125 C 6.734375 10.554688 6.769531 11.589844 7.023438 12.613281 C 7.0625 12.769531 7.046875 12.84375 6.882812 12.902344 C 6.476562 13.046875 6.085938 13.226562 5.714844 13.4375 C 5.5625 13.523438 5.523438 13.484375 5.484375 13.339844 C 4.933594 11.292969 5.042969 9.285156 5.953125 7.371094 C 7.324219 4.488281 9.621094 2.800781 12.777344 2.402344 C 16.757812 1.902344 20.558594 4.332031 21.875 8.140625 C 21.949219 8.347656 21.917969 8.445312 21.714844 8.542969 C 21.292969 8.753906 20.902344 9.015625 20.484375 9.3125 Z M 20.484375 9.3125 " fill-opacity="1" fill-rule="nonzero"/><path fill="#fff" d="M 15.824219 9.289062 C 15.640625 9.289062 15.457031 9.285156 15.273438 9.289062 C 15.085938 9.296875 14.972656 9.210938 14.933594 9.035156 C 14.855469 8.707031 14.640625 8.542969 14.320312 8.476562 C 13.886719 8.390625 13.453125 8.382812 13.023438 8.492188 C 12.746094 8.5625 12.589844 8.742188 12.570312 8.996094 C 12.542969 9.28125 12.652344 9.480469 12.921875 9.601562 C 13.417969 9.824219 13.953125 9.910156 14.476562 10.042969 C 14.933594 10.15625 15.378906 10.308594 15.800781 10.53125 C 16.886719 11.117188 16.992188 12.175781 16.738281 13.09375 C 16.707031 13.214844 16.65625 13.222656 16.550781 13.171875 C 16.101562 12.960938 15.640625 12.78125 15.167969 12.628906 C 15.101562 12.609375 15.050781 12.585938 15.046875 12.5 C 15.023438 12.167969 14.800781 11.996094 14.523438 11.875 C 14.0625 11.675781 13.574219 11.601562 13.09375 11.476562 C 12.695312 11.375 12.300781 11.257812 11.921875 11.089844 C 10.320312 10.378906 10.554688 8.503906 11.457031 7.730469 C 11.886719 7.363281 12.378906 7.148438 12.941406 7.105469 C 13.148438 7.085938 13.214844 7.023438 13.199219 6.8125 C 13.179688 6.523438 13.195312 6.523438 13.492188 6.523438 C 13.707031 6.523438 13.921875 6.53125 14.136719 6.519531 C 14.277344 6.511719 14.308594 6.566406 14.308594 6.699219 C 14.308594 7.0625 14.3125 7.0625 14.667969 7.109375 C 15.648438 7.230469 16.488281 7.953125 16.703125 8.847656 C 16.769531 9.140625 16.65625 9.285156 16.359375 9.289062 C 16.179688 9.289062 16.003906 9.289062 15.824219 9.289062 Z M 15.824219 9.289062 " fill-opacity="1" fill-rule="nonzero"/><path fill="#fff" d="M 8.453125 26.019531 C 8.734375 26.019531 9.015625 26.015625 9.296875 26.019531 C 9.585938 26.023438 9.734375 26.15625 9.773438 26.4375 C 9.882812 27.191406 10.121094 27.417969 10.886719 27.511719 C 11.421875 27.578125 11.945312 27.539062 12.46875 27.410156 C 12.828125 27.316406 13.078125 27.109375 13.140625 26.730469 C 13.207031 26.332031 13.050781 26.023438 12.679688 25.800781 C 12.191406 25.507812 11.636719 25.40625 11.089844 25.277344 C 10.410156 25.121094 9.722656 24.980469 9.074219 24.695312 C 8.40625 24.398438 7.824219 23.996094 7.507812 23.296875 C 6.976562 22.109375 7.378906 20.6875 8.472656 19.902344 C 9.058594 19.484375 9.71875 19.261719 10.433594 19.214844 C 10.632812 19.203125 10.742188 19.160156 10.710938 18.921875 C 10.683594 18.742188 10.710938 18.550781 10.703125 18.367188 C 10.699219 18.257812 10.722656 18.207031 10.847656 18.210938 C 11.261719 18.21875 11.675781 18.214844 12.089844 18.210938 C 12.199219 18.210938 12.230469 18.25 12.226562 18.351562 C 12.21875 18.539062 12.242188 18.726562 12.21875 18.910156 C 12.1875 19.152344 12.296875 19.207031 12.507812 19.210938 C 12.925781 19.222656 13.328125 19.320312 13.710938 19.492188 C 14.679688 19.921875 15.1875 20.703125 15.363281 21.726562 C 15.414062 22.039062 15.230469 22.25 14.917969 22.253906 C 14.429688 22.257812 13.941406 22.253906 13.457031 22.253906 C 13.222656 22.253906 13.0625 22.140625 13.023438 21.917969 C 12.914062 21.328125 12.546875 21.039062 11.976562 20.980469 C 11.453125 20.925781 10.929688 20.910156 10.414062 21.042969 C 10.011719 21.148438 9.800781 21.375 9.773438 21.738281 C 9.738281 22.140625 9.890625 22.402344 10.28125 22.578125 C 10.851562 22.828125 11.464844 22.949219 12.066406 23.089844 C 12.742188 23.246094 13.402344 23.445312 14.027344 23.753906 C 14.988281 24.222656 15.570312 24.957031 15.625 26.050781 C 15.6875 27.230469 15.273438 28.183594 14.265625 28.839844 C 13.695312 29.207031 13.0625 29.394531 12.394531 29.46875 C 12.089844 29.5 12.089844 29.5 12.089844 29.796875 C 12.089844 30.019531 12.082031 30.242188 12.089844 30.464844 C 12.09375 30.578125 12.066406 30.621094 11.945312 30.621094 C 11.53125 30.613281 11.117188 30.613281 10.703125 30.617188 C 10.59375 30.621094 10.566406 30.582031 10.566406 30.476562 C 10.574219 30.210938 10.5625 29.945312 10.570312 29.675781 C 10.578125 29.546875 10.542969 29.503906 10.40625 29.492188 C 9.292969 29.382812 8.398438 28.882812 7.738281 27.972656 C 7.457031 27.585938 7.273438 27.152344 7.171875 26.683594 C 7.070312 26.230469 7.238281 26.019531 7.699219 26.019531 C 7.953125 26.019531 8.203125 26.019531 8.453125 26.019531 Z M 8.453125 26.019531 " fill-opacity="1" fill-rule="nonzero"/></svg>