<svg xmlns="http://www.w3.org/2000/svg" xmlns:xlink="http://www.w3.org/1999/xlink" width="50" zoomAndPan="magnify" viewBox="0 0 37.5 37.499999" height="50" preserveAspectRatio="xMidYMid meet" version="1.0"><defs><clipPath id="a0f3817cb6"><path d="M 0.894531 1.3125 L 35.679688 1.3125 L 35.679688 35.359375 L 0.894531 35.359375 Z M 0.894531 1.3125 " clip-rule="nonzero"/></clipPath></defs><g clip-path="url(#a0f3817cb6)"><path fill="#fff" d="M 10.796875 6.457031 L 4.675781 6.457031 C 3.726562 6.457031 2.941406 7.234375 2.941406 8.195312 L 2.941406 12.394531 C 3.410156 11.886719 3.9375 11.449219 4.519531 11.085938 L 4.519531 9.816406 C 4.519531 8.734375 5.394531 7.855469 6.472656 7.855469 L 10.789062 7.855469 L 10.789062 6.457031 Z M 23.636719 33.042969 C 23.546875 33.136719 23.464844 33.226562 23.359375 33.25 L 20.152344 33.988281 C 19.359375 34.171875 18.628906 33.566406 18.605469 32.808594 L 6.480469 32.808594 C 5.410156 32.808594 4.527344 31.925781 4.527344 30.851562 L 4.527344 23.839844 C 3.9375 23.476562 3.410156 23.03125 2.949219 22.53125 L 2.949219 33.015625 C 2.949219 33.96875 3.726562 34.753906 4.683594 34.753906 L 26.367188 34.753906 C 27.320312 34.753906 28.105469 33.976562 28.105469 33.015625 L 28.105469 28.777344 Z M 23.507812 32.324219 L 34.730469 21.601562 C 34.992188 21.351562 35 20.925781 34.75 20.664062 L 32.570312 18.371094 C 32.292969 18.074219 31.945312 18.050781 31.636719 18.347656 L 20.414062 29.074219 C 21.691406 29.859375 22.785156 31.011719 23.507812 32.324219 Z M 19.714844 28.898438 L 25.910156 22.976562 L 25.910156 9.816406 C 25.910156 9.074219 25.296875 8.460938 24.558594 8.460938 L 20.242188 8.460938 L 20.242188 8.589844 C 20.242188 9.324219 19.644531 9.921875 18.914062 9.921875 L 12.117188 9.921875 C 11.382812 9.921875 10.789062 9.324219 10.789062 8.589844 L 10.789062 8.460938 L 6.480469 8.460938 C 5.742188 8.460938 5.128906 9.074219 5.128906 9.816406 L 5.128906 10.753906 C 8.011719 9.316406 11.476562 9.90625 13.738281 12.167969 C 16.085938 14.519531 16.605469 18.152344 15.007812 21.0625 C 17.902344 23.136719 18.265625 27.332031 15.738281 29.867188 C 13.480469 32.128906 9.828125 32.128906 7.574219 29.867188 C 6.207031 28.5 5.589844 26.507812 6.011719 24.550781 C 5.703125 24.445312 5.410156 24.324219 5.128906 24.179688 L 5.128906 30.851562 C 5.128906 31.59375 5.742188 32.207031 6.480469 32.207031 L 18.703125 32.207031 L 19.480469 29.203125 C 19.511719 29.082031 19.609375 28.996094 19.714844 28.898438 Z M 26.519531 22.402344 L 28.097656 20.890625 L 28.097656 8.195312 C 28.097656 7.242188 27.320312 6.457031 26.363281 6.457031 L 20.25 6.457031 L 20.25 7.847656 L 24.566406 7.847656 C 25.636719 7.847656 26.519531 8.726562 26.519531 9.808594 Z M 28.707031 20.3125 L 31.21875 17.910156 C 31.777344 17.378906 32.503906 17.425781 33.007812 17.953125 L 35.1875 20.246094 C 35.671875 20.753906 35.648438 21.554688 35.144531 22.039062 L 28.707031 28.195312 L 28.707031 33.015625 C 28.707031 34.308594 27.660156 35.359375 26.367188 35.359375 L 4.675781 35.359375 C 3.394531 35.359375 2.335938 34.308594 2.335938 33.015625 L 2.335938 21.773438 C 1.484375 20.554688 0.980469 19.066406 0.980469 17.460938 C 0.980469 15.859375 1.484375 14.367188 2.34375 13.152344 L 2.34375 8.195312 C 2.34375 6.902344 3.394531 5.851562 4.683594 5.851562 L 10.804688 5.851562 C 10.855469 5.164062 11.4375 4.617188 12.132812 4.617188 C 12.464844 4.617188 12.726562 4.65625 12.976562 4.4375 C 13.105469 4.324219 13.195312 4.171875 13.21875 3.984375 C 13.464844 2.152344 15.65625 1.3125 17.058594 2.539062 C 17.472656 2.902344 17.761719 3.410156 17.835938 3.984375 C 17.886719 4.347656 18.191406 4.609375 18.558594 4.609375 L 18.929688 4.609375 C 19.625 4.609375 20.203125 5.148438 20.257812 5.84375 L 26.375 5.84375 C 27.667969 5.84375 28.714844 6.894531 28.714844 8.1875 L 28.714844 20.3125 Z M 9.730469 28.6875 C 9.625 28.816406 9.4375 28.839844 9.308594 28.734375 C 9.179688 28.628906 9.160156 28.4375 9.265625 28.308594 L 13.585938 22.863281 C 13.691406 22.734375 13.882812 22.710938 14.011719 22.808594 C 14.136719 22.917969 14.160156 23.105469 14.0625 23.234375 Z M 12.953125 26.789062 C 12.796875 27.007812 12.71875 27.207031 12.75 27.476562 C 12.839844 28.25 13.828125 28.621094 14.394531 27.929688 C 14.695312 27.566406 14.628906 26.949219 14.25 26.660156 C 13.820312 26.335938 13.269531 26.394531 12.953125 26.789062 Z M 12.472656 26.425781 C 13.316406 25.367188 15.019531 25.859375 15.171875 27.207031 C 15.324219 28.566406 13.746094 29.414062 12.710938 28.574219 C 12.039062 28.023438 11.957031 27.046875 12.472656 26.425781 Z M 8.464844 23.226562 C 9.308594 22.167969 11.015625 22.660156 11.164062 24.003906 C 11.316406 25.351562 9.761719 26.214844 8.707031 25.375 C 8.050781 24.84375 7.9375 23.882812 8.464844 23.226562 Z M 9.550781 23.265625 C 8.742188 23.355469 8.449219 24.390625 9.082031 24.898438 C 9.71875 25.40625 10.660156 24.890625 10.570312 24.074219 C 10.507812 23.566406 10.046875 23.203125 9.550781 23.265625 Z M 11.65625 19.988281 C 11.875 19.988281 12.09375 20.003906 12.304688 20.027344 C 13.519531 18.195312 13.277344 15.746094 11.714844 14.1875 C 9.914062 12.378906 6.984375 12.378906 5.175781 14.1875 C 3.5 15.867188 3.363281 18.535156 4.851562 20.382812 C 5.46875 21.144531 6.328125 21.714844 7.316406 21.964844 C 8.382812 20.746094 9.9375 19.988281 11.65625 19.988281 Z M 12.953125 20.132812 C 13.503906 20.261719 14.023438 20.464844 14.5 20.738281 C 15.941406 18.066406 15.457031 14.746094 13.308594 12.589844 C 10.628906 9.90625 6.277344 9.90625 3.597656 12.589844 C 1.191406 15.003906 0.902344 18.816406 2.933594 21.5625 C 3.75 22.667969 4.886719 23.507812 6.179688 23.960938 C 6.351562 23.421875 6.609375 22.925781 6.917969 22.46875 C 4.738281 21.796875 3.226562 19.777344 3.226562 17.460938 C 3.226562 14.566406 5.566406 12.222656 8.457031 12.222656 C 12.523438 12.222656 15.007812 16.675781 12.953125 20.132812 Z M 15.308594 22.113281 C 13.292969 20.085938 10.019531 20.085938 8.003906 22.113281 C 5.980469 24.132812 5.980469 27.417969 8.003906 29.445312 C 10.019531 31.464844 13.292969 31.464844 15.308594 29.445312 C 17.328125 27.417969 17.328125 24.132812 15.308594 22.113281 Z M 6.976562 18.527344 C 6.941406 18.136719 7.542969 18.074219 7.574219 18.476562 C 7.625 19.035156 8.554688 19.316406 9.089844 18.878906 C 9.234375 18.757812 9.324219 18.597656 9.324219 18.429688 C 9.324219 17.320312 6.96875 18.265625 6.96875 16.496094 C 6.96875 15.84375 7.511719 15.367188 8.140625 15.253906 L 8.140625 14.890625 C 8.140625 14.71875 8.277344 14.589844 8.457031 14.589844 C 8.628906 14.589844 8.757812 14.722656 8.757812 14.898438 L 8.75 15.261719 C 9.386719 15.367188 9.9375 15.851562 9.9375 16.503906 C 9.9375 16.902344 9.332031 16.902344 9.332031 16.503906 C 9.332031 15.917969 8.367188 15.601562 7.816406 16.054688 C 7.671875 16.175781 7.582031 16.335938 7.582031 16.503906 C 7.582031 17.613281 9.941406 16.667969 9.941406 18.4375 C 9.941406 19.089844 9.390625 19.566406 8.765625 19.679688 L 8.757812 20.042969 C 8.757812 20.441406 8.15625 20.441406 8.15625 20.042969 L 8.15625 19.679688 C 7.550781 19.566406 7.039062 19.132812 6.976562 18.527344 Z M 20.015625 29.535156 L 19.230469 32.554688 C 19.179688 32.800781 19.195312 33.007812 19.390625 33.210938 C 19.554688 33.386719 19.78125 33.445312 20.015625 33.394531 L 23.027344 32.695312 C 22.347656 31.417969 21.261719 30.285156 20.015625 29.535156 Z M 20.640625 24.082031 C 21.042969 24.082031 21.042969 24.6875 20.640625 24.6875 L 18.628906 24.6875 C 18.226562 24.6875 18.226562 24.082031 18.628906 24.082031 Z M 23.050781 21.878906 C 23.449219 21.878906 23.449219 22.484375 23.050781 22.484375 L 17.667969 22.484375 C 17.269531 22.484375 17.269531 21.878906 17.667969 21.878906 Z M 15.527344 3.21875 C 16.566406 3.21875 17.097656 4.488281 16.355469 5.230469 C 15.617188 5.972656 14.347656 5.441406 14.347656 4.398438 C 14.347656 3.75 14.878906 3.21875 15.527344 3.21875 Z M 15.925781 3.992188 C 15.570312 3.636719 14.953125 3.886719 14.953125 4.398438 C 14.953125 4.90625 15.570312 5.164062 15.925781 4.800781 C 16.152344 4.582031 16.152344 4.21875 15.925781 3.992188 Z M 23.585938 13.769531 C 23.984375 13.769531 23.984375 14.375 23.585938 14.375 L 16.265625 14.375 C 15.867188 14.375 15.867188 13.769531 16.265625 13.769531 Z M 23.585938 11.578125 C 23.984375 11.578125 23.984375 12.183594 23.585938 12.183594 L 15.066406 12.183594 C 14.667969 12.183594 14.667969 11.578125 15.066406 11.578125 Z M 18.921875 5.230469 C 18.445312 5.230469 18.085938 5.261719 17.675781 4.90625 C 17.441406 4.703125 17.285156 4.414062 17.238281 4.082031 C 17.050781 2.710938 15.421875 2.101562 14.386719 3.007812 C 14.078125 3.28125 13.867188 3.65625 13.804688 4.082031 C 13.714844 4.746094 13.15625 5.238281 12.484375 5.238281 C 12.140625 5.238281 11.867188 5.195312 11.601562 5.449219 C 11.375 5.679688 11.390625 5.890625 11.390625 6.160156 L 11.390625 8.589844 C 11.390625 8.992188 11.714844 9.316406 12.117188 9.316406 L 18.914062 9.316406 C 19.3125 9.316406 19.640625 8.992188 19.640625 8.589844 L 19.640625 5.957031 C 19.644531 5.558594 19.320312 5.230469 18.921875 5.230469 Z M 23.585938 18.929688 C 23.984375 18.929688 23.984375 19.535156 23.585938 19.535156 L 16.6875 19.535156 C 16.296875 19.535156 16.296875 18.929688 16.6875 18.929688 Z M 23.585938 16.730469 C 23.984375 16.730469 23.984375 17.335938 23.585938 17.335938 L 16.976562 17.335938 C 16.574219 17.335938 16.574219 16.730469 16.976562 16.730469 Z M 23.585938 16.730469 " fill-opacity="1" fill-rule="nonzero"/></g></svg>