<svg xmlns="http://www.w3.org/2000/svg" xmlns:xlink="http://www.w3.org/1999/xlink" width="50" zoomAndPan="magnify" viewBox="0 0 37.5 37.499999" height="50" preserveAspectRatio="xMidYMid meet" version="1.0"><defs><clipPath id="5aef3d0b1d"><path d="M 6 7 L 31 7 L 31 35.308594 L 6 35.308594 Z M 6 7 " clip-rule="nonzero"/></clipPath><clipPath id="a4cf150375"><path d="M 1.0625 2 L 35.851562 2 L 35.851562 20 L 1.0625 20 Z M 1.0625 2 " clip-rule="nonzero"/></clipPath></defs><g clip-path="url(#5aef3d0b1d)"><path fill="#fff" d="M 30.667969 18.929688 Z M 30.667969 18.929688 L 18.460938 7.988281 L 6.246094 18.9375 L 6.246094 34.578125 C 6.246094 34.980469 6.570312 35.304688 6.96875 35.304688 L 14.601562 35.304688 L 14.601562 28.445312 C 14.601562 28.042969 14.921875 27.714844 15.320312 27.714844 L 21.59375 27.714844 C 21.992188 27.714844 22.3125 28.042969 22.3125 28.445312 L 22.3125 35.304688 L 29.949219 35.304688 C 30.347656 35.304688 30.667969 34.980469 30.667969 34.578125 Z M 6.246094 18.9375 Z M 6.246094 18.9375 " fill-opacity="1" fill-rule="nonzero"/></g><g clip-path="url(#a4cf150375)"><path fill="#fff" d="M 18.390625 2 L 1.066406 17.527344 L 2.890625 19.609375 L 18.460938 5.65625 L 34.027344 19.609375 L 35.847656 17.527344 L 18.527344 2 L 18.460938 2.078125 Z M 18.390625 2 " fill-opacity="1" fill-rule="nonzero"/></g><path fill="#fff" d="M 6.246094 4.234375 L 10.636719 4.234375 L 10.601562 6.867188 L 6.246094 10.847656 Z M 6.246094 4.234375 " fill-opacity="1" fill-rule="nonzero"/></svg>