<svg xmlns="http://www.w3.org/2000/svg" xmlns:xlink="http://www.w3.org/1999/xlink" width="50" zoomAndPan="magnify" viewBox="0 0 37.5 37.499999" height="50" preserveAspectRatio="xMidYMid meet" version="1.0"><defs><clipPath id="65a7f7e285"><path d="M 0.445312 0.445312 L 36.710938 0.445312 L 36.710938 36.710938 L 0.445312 36.710938 Z M 0.445312 0.445312 " clip-rule="nonzero"/></clipPath></defs><g clip-path="url(#65a7f7e285)"><path fill="#fff" d="M 8.710938 10.378906 C 8.710938 9.726562 8.773438 9.082031 8.902344 8.445312 C 9.03125 7.808594 9.21875 7.1875 9.46875 6.585938 C 9.71875 5.984375 10.023438 5.414062 10.382812 4.871094 C 10.746094 4.328125 11.15625 3.828125 11.617188 3.367188 C 12.078125 2.910156 12.578125 2.496094 13.121094 2.136719 C 13.660156 1.773438 14.234375 1.46875 14.835938 1.21875 C 15.433594 0.96875 16.054688 0.78125 16.695312 0.652344 C 17.332031 0.523438 17.976562 0.460938 18.628906 0.460938 C 31.738281 0.921875 31.761719 19.792969 18.660156 20.296875 C 18.007812 20.300781 17.363281 20.238281 16.722656 20.109375 C 16.082031 19.984375 15.460938 19.796875 14.859375 19.550781 C 14.253906 19.300781 13.679688 18.996094 13.136719 18.632812 C 12.59375 18.273438 12.09375 17.863281 11.628906 17.402344 C 11.167969 16.941406 10.753906 16.441406 10.390625 15.898438 C 10.027344 15.355469 9.722656 14.785156 9.472656 14.179688 C 9.21875 13.578125 9.03125 12.957031 8.902344 12.316406 C 8.773438 11.679688 8.710938 11.03125 8.710938 10.378906 Z M 28.667969 20.300781 C 28.398438 20.136719 28.105469 20.058594 27.789062 20.066406 C 27.472656 20.074219 27.183594 20.167969 26.921875 20.34375 C 26.328125 20.824219 25.699219 21.253906 25.035156 21.625 C 24.367188 21.996094 23.675781 22.308594 22.957031 22.5625 C 22.238281 22.8125 21.5 23.003906 20.75 23.128906 C 19.996094 23.253906 19.238281 23.3125 18.476562 23.308594 C 17.714844 23.304688 16.957031 23.230469 16.207031 23.097656 C 15.457031 22.960938 14.726562 22.761719 14.007812 22.5 C 13.292969 22.234375 12.605469 21.914062 11.945312 21.53125 C 11.285156 21.152344 10.660156 20.714844 10.078125 20.226562 C 9.601562 20.007812 9.136719 20.03125 8.6875 20.300781 C 7.460938 21.113281 6.355469 22.066406 5.363281 23.15625 C 4.375 24.246094 3.535156 25.4375 2.839844 26.734375 C 2.148438 28.03125 1.621094 29.394531 1.265625 30.824219 C 0.910156 32.25 0.730469 33.699219 0.734375 35.171875 C 0.734375 35.371094 0.773438 35.566406 0.851562 35.753906 C 0.925781 35.941406 1.035156 36.105469 1.179688 36.25 C 1.324219 36.390625 1.488281 36.5 1.675781 36.578125 C 1.859375 36.65625 2.054688 36.695312 2.257812 36.695312 L 35.050781 36.695312 C 35.25 36.695312 35.445312 36.65625 35.632812 36.578125 C 35.820312 36.5 35.984375 36.390625 36.128906 36.25 C 36.269531 36.105469 36.378906 35.941406 36.457031 35.753906 C 36.535156 35.566406 36.574219 35.371094 36.574219 35.171875 C 36.570312 33.703125 36.394531 32.257812 36.039062 30.832031 C 35.683594 29.410156 35.160156 28.046875 34.472656 26.753906 C 33.78125 25.457031 32.945312 24.261719 31.964844 23.171875 C 30.980469 22.082031 29.882812 21.125 28.667969 20.300781 Z M 28.667969 20.300781 " fill-opacity="1" fill-rule="nonzero"/></g></svg>