<svg xmlns="http://www.w3.org/2000/svg" xmlns:xlink="http://www.w3.org/1999/xlink" width="50" zoomAndPan="magnify" viewBox="0 0 37.5 37.499999" height="50" preserveAspectRatio="xMidYMid meet" version="1.0"><defs><clipPath id="3b9db95232"><path d="M 1.003906 2.6875 L 36.53125 2.6875 L 36.53125 34.515625 L 1.003906 34.515625 Z M 1.003906 2.6875 " clip-rule="nonzero"/></clipPath></defs><g clip-path="url(#3b9db95232)"><path fill="#fff" d="M 14.585938 10.761719 C 14.222656 10.941406 13.707031 10.800781 13.378906 10.621094 C 13.117188 10.476562 12.789062 10.566406 12.648438 10.828125 C 12.5 11.082031 12.59375 11.40625 12.855469 11.550781 C 13.117188 11.695312 13.394531 11.796875 13.679688 11.855469 C 13.679688 12.652344 14.753906 12.582031 14.753906 11.90625 L 14.753906 11.839844 C 15.375 11.640625 15.820312 11.207031 15.855469 10.554688 C 15.855469 10.53125 15.855469 10.511719 15.855469 10.496094 C 15.835938 10.148438 15.691406 9.664062 15.089844 9.339844 C 15.085938 9.335938 15.078125 9.335938 15.074219 9.332031 C 14.753906 9.167969 14.484375 9.148438 14.265625 9.132812 C 14.105469 9.121094 13.996094 9.109375 13.875 9.046875 C 13.417969 8.804688 13.816406 8.480469 14.21875 8.480469 C 14.535156 8.496094 14.804688 8.566406 15.042969 8.703125 C 15.296875 8.851562 15.628906 8.765625 15.777344 8.507812 C 15.925781 8.257812 15.839844 7.929688 15.582031 7.78125 C 15.324219 7.632812 15.050781 7.527344 14.753906 7.46875 C 14.753906 6.671875 13.679688 6.746094 13.679688 7.421875 L 13.679688 7.492188 C 13.066406 7.671875 12.585938 8.179688 12.59375 8.820312 C 12.605469 9.160156 12.742188 9.640625 13.355469 9.984375 C 13.359375 9.988281 13.367188 9.992188 13.371094 9.992188 C 13.691406 10.152344 13.960938 10.175781 14.179688 10.195312 C 14.34375 10.207031 14.453125 10.214844 14.582031 10.28125 C 14.84375 10.417969 14.835938 10.625 14.585938 10.761719 Z M 35.449219 31.460938 L 35.449219 29.488281 L 2.085938 29.488281 L 2.085938 32.566406 C 2.085938 33.046875 2.480469 33.4375 2.964844 33.4375 L 34.570312 33.4375 C 35.054688 33.4375 35.449219 33.046875 35.449219 32.566406 Z M 5.121094 13.316406 C 5.121094 12.835938 5.519531 12.445312 6.003906 12.445312 L 10.132812 12.445312 L 10.132812 14.925781 L 8.847656 14.925781 C 8.160156 14.925781 7.601562 15.480469 7.601562 16.164062 L 7.601562 17.707031 C 7.601562 18.386719 8.160156 18.945312 8.847656 18.945312 L 19.585938 18.945312 C 20.273438 18.945312 20.832031 18.386719 20.832031 17.707031 L 20.832031 16.164062 C 20.832031 15.480469 20.273438 14.925781 19.585938 14.925781 L 18.300781 14.925781 L 18.300781 12.445312 L 31.53125 12.445312 C 32.015625 12.445312 32.410156 12.835938 32.410156 13.316406 L 32.410156 21.421875 L 5.121094 21.421875 Z M 11.210938 4.546875 L 12.09375 5.300781 C 12.296875 5.46875 12.59375 5.46875 12.792969 5.300781 L 14.21875 4.089844 L 15.640625 5.300781 C 15.839844 5.46875 16.136719 5.46875 16.339844 5.300781 L 17.222656 4.546875 L 17.222656 14.925781 L 11.210938 14.925781 Z M 8.847656 15.992188 C 8.753906 15.992188 8.675781 16.066406 8.675781 16.164062 L 8.675781 17.707031 C 8.675781 17.796875 8.753906 17.875 8.847656 17.875 L 19.585938 17.875 C 19.679688 17.875 19.757812 17.796875 19.757812 17.707031 L 19.757812 16.164062 C 19.757812 16.066406 19.679688 15.992188 19.585938 15.992188 Z M 4.9375 22.484375 L 2.363281 28.417969 L 35.171875 28.417969 L 32.59375 22.484375 Z M 21.6875 7.875 L 32.054688 7.875 C 32.246094 7.875 32.410156 7.710938 32.410156 7.519531 L 32.410156 4.273438 C 32.410156 4.082031 32.246094 3.917969 32.054688 3.917969 L 21.6875 3.917969 C 21.496094 3.917969 21.332031 4.082031 21.332031 4.273438 L 21.332031 7.519531 C 21.332031 7.710938 21.496094 7.875 21.6875 7.875 Z M 36.527344 28.953125 L 36.527344 32.566406 C 36.527344 33.636719 35.648438 34.507812 34.570312 34.507812 L 2.964844 34.507812 C 1.886719 34.507812 1.007812 33.636719 1.007812 32.566406 L 1.007812 28.953125 C 1.007812 28.878906 1.023438 28.808594 1.050781 28.742188 L 4.046875 21.84375 L 4.046875 13.316406 C 4.046875 12.253906 4.925781 11.378906 6.003906 11.378906 L 10.132812 11.378906 L 10.132812 3.390625 C 10.132812 2.933594 10.671875 2.683594 11.019531 2.984375 L 12.445312 4.1875 L 13.867188 2.984375 C 14.066406 2.808594 14.367188 2.808594 14.566406 2.984375 L 15.988281 4.1875 L 17.410156 2.984375 C 17.761719 2.683594 18.300781 2.933594 18.300781 3.390625 L 18.300781 11.378906 L 26.332031 11.378906 L 26.332031 8.941406 L 21.6875 8.941406 C 20.898438 8.941406 20.253906 8.300781 20.253906 7.519531 L 20.253906 4.273438 C 20.253906 3.492188 20.898438 2.855469 21.6875 2.855469 L 32.054688 2.855469 C 32.84375 2.855469 33.488281 3.492188 33.488281 4.273438 L 33.488281 7.519531 C 33.488281 8.300781 32.84375 8.941406 32.054688 8.941406 L 27.410156 8.941406 L 27.410156 11.378906 L 31.53125 11.378906 C 32.609375 11.378906 33.488281 12.253906 33.488281 13.316406 L 33.488281 21.84375 L 36.480469 28.742188 C 36.511719 28.808594 36.527344 28.878906 36.527344 28.953125 Z M 23.859375 15.992188 L 24.855469 15.992188 C 25.152344 15.992188 25.390625 15.753906 25.390625 15.457031 C 25.390625 15.164062 25.152344 14.925781 24.855469 14.925781 L 23.859375 14.925781 C 23.5625 14.925781 23.320312 15.164062 23.320312 15.457031 C 23.320312 15.753906 23.5625 15.992188 23.859375 15.992188 Z M 28.398438 18.945312 L 29.394531 18.945312 C 29.691406 18.945312 29.933594 18.707031 29.933594 18.410156 C 29.933594 18.117188 29.691406 17.875 29.394531 17.875 L 28.398438 17.875 C 28.101562 17.875 27.859375 18.117188 27.859375 18.410156 C 27.859375 18.707031 28.101562 18.945312 28.398438 18.945312 Z M 23.859375 18.945312 L 24.855469 18.945312 C 25.152344 18.945312 25.390625 18.707031 25.390625 18.410156 C 25.390625 18.117188 25.152344 17.875 24.855469 17.875 L 23.859375 17.875 C 23.5625 17.875 23.320312 18.117188 23.320312 18.410156 C 23.320312 18.707031 23.5625 18.945312 23.859375 18.945312 Z M 27.859375 15.457031 C 27.859375 15.753906 28.101562 15.992188 28.398438 15.992188 L 29.394531 15.992188 C 29.691406 15.992188 29.933594 15.753906 29.933594 15.457031 C 29.933594 15.164062 29.691406 14.925781 29.394531 14.925781 L 28.398438 14.925781 C 28.101562 14.925781 27.859375 15.164062 27.859375 15.457031 Z M 27.859375 15.457031 " fill-opacity="1" fill-rule="evenodd"/></g></svg>